<?xml version="1.0" encoding="utf-8"?>
<!-- Svg Vector Icons : http://www.onlinewebfonts.com/icon -->
<!DOCTYPE svg PUBLIC "-//W3C//DTD SVG 1.1//EN" "http://www.w3.org/Graphics/SVG/1.1/DTD/svg11.dtd">
<svg version="1.1" xmlns="http://www.w3.org/2000/svg" xmlns:xlink="http://www.w3.org/1999/xlink" x="0px" y="0px" viewBox="0 0 1000 1000" enable-background="new 0 0 1000 1000" xml:space="preserve">
  <defs>
    <linearGradient id="outt" x1="0%" y1="0%" x2="100%" y2="100%">
      <stop offset="0%" style="stop-color:#FCECB2;stop-opacity:1" />
      <stop offset="30%" style="stop-color:#FF8B89;stop-opacity:1" />
      <stop offset="60%" style="stop-color:#FC8ADC;stop-opacity:1" />
      <stop offset="90%" style="stop-color:#7954FF;stop-opacity:1" />
      <stop offset="100%" style="stop-color:#70BCFF;stop-opacity:1" />
    </linearGradient>
    <linearGradient id="cent" x1="0%" y1="0%" x2="100%" y2="100%">
      <stop offset="0%" style="stop-color:#FCECB2;stop-opacity:1" />
      <stop offset="30%" style="stop-color:#FF8B89;stop-opacity:1" />
      <stop offset="60%" style="stop-color:#FC8ADC;stop-opacity:1" />
      <stop offset="90%" style="stop-color:#7954FF;stop-opacity:1" />
      <stop offset="100%" style="stop-color:#70BCFF;stop-opacity:1" />
    </linearGradient>
  </defs>
<g>
<path fill="url(#outt)" d="M518.8,10c90.9,33,119.5,114.9,151.3,193.2c32.2-3.2,63.7-9,95.2-8.9c29.6,0.1,60.3,2.5,88.4,10.9c73.8,22.1,91.6,72,77.4,139.1c-11.2,52.9-42.5,96.1-76,137.4c-4.8,5.9-9.7,11.7-14.2,17.1c18.7,25.8,38.3,50.1,54.7,76.3c22.7,36.3,40.1,74.5,39.5,119.5c-0.6,43.4-20.5,72.4-57.3,91.4c-35.6,18.4-74.3,21.9-113.4,20c-31-1.6-61.9-5.7-94.6-8.9c-5.5,13.9-11.1,29.3-17.5,44.4c-17.3,40.7-38.1,79.2-70.2,110.5c-52.1,50.6-112,50.5-163.9-0.3c-37.8-37-59.9-83.4-78.7-131.8c-3-7.7-5.7-15.4-8.5-22.9c-31.6,3.1-62.5,8.3-93.3,8.5c-28.4,0.2-57.6-1.7-85-8.6c-71.9-18-102-72.4-82.9-144.1c12.9-48.4,39.7-89.2,70.3-127.9c6.3-8,12.9-15.7,20.3-24.6c-9.9-12.4-20-24.5-29.4-37.1c-30-40-55.9-82.1-64.6-132.5c-9.8-56.6,14.4-101,67.8-122c52.2-20.5,106.1-17.4,160.1-10c11.3,1.5,22.5,3.9,35.4,6.1c2.1-5,3.9-10.2,6.3-15.1c17-34.8,32-70.8,51.6-104c21.9-37,53.9-64.1,96.7-75.9C495.9,10,507.4,10,518.8,10z M694.7,500.4c-1.7-30.7-2.7-62.6-5.9-94.2c-0.8-8.1-6.5-18.7-13.3-22.7C622.3,351.3,568.4,320,514,289.7c-6.9-3.8-19.4-4.2-26.2-0.5c-54.9,30.6-109.3,62.1-163.3,94.5c-6.2,3.7-12.2,13.8-12.3,21c-1,63.5-1,127.1,0,190.6c0.1,7.2,5.9,17.4,12.1,21.1c54.5,32.6,109.5,64.4,164.9,95.5c5.8,3.3,16.7,3.2,22.6-0.1c54.9-30.7,109.4-62.1,163.3-94.6c7.1-4.3,13-15.7,13.9-24.3C692.2,562.6,693,532,694.7,500.4z M320.8,227c-54.7-8.7-110.2-13.3-163.5,11.2c-41.8,19.2-61.4,57.4-54,103.4c8.8,54.6,38.6,98.6,71.4,139.2c38.6-32.4,76.2-63.7,113.3-95.6c4.2-3.6,6.8-10.5,7.9-16.3C304.3,322.7,312.2,276.4,320.8,227z M646.5,207.5c-19.1-49.2-41.6-96.6-84.1-131c-36.8-29.8-77.3-32.4-114.6-6.7c-49.5,34-73.3,85.7-93.4,137.7c47.7,17.6,93.5,34.6,139.4,51.1c4.2,1.5,10,1.1,14.3-0.4C553.4,241.8,598.6,225.1,646.5,207.5z M679.7,227c8.9,50.2,17.1,97.1,25.8,143.9c1,5.1,3.4,11.2,7.1,14.5c37.1,31.7,74.5,63,113.1,95.4c32.9-40.1,62.5-83.5,71.1-137.3c7.6-47.5-10.2-84-50.1-103.6C792.7,213.3,736,218.2,679.7,227z M354,792.9c19.7,49.1,41.9,97.4,85.4,131.8c35.1,27.8,74.4,31.1,109.9,8.2c51.9-33.5,75.7-86.4,97.4-139.9c-48.7-18-95-35.2-141.5-51.9c-3.7-1.3-8.8-0.3-12.7,1.1C447.2,758.5,402,775.2,354,792.9z M174.8,519.4c-32.5,40.2-61.4,83.2-71,136.4c-8.2,45.5,9.5,84.1,49.4,104.1c54.6,27.5,111.8,21.1,167.7,13.7c-8.7-50-16.7-97.6-25.5-145c-1-5.6-5.1-11.5-9.5-15.3C249.7,582.2,213.1,551.7,174.8,519.4z M824.8,517.8c-21.8,19.9-40.3,41.7-63.3,56.8c-41.6,27.3-64.3,61.9-66.1,112.8c-1,28.4-11.1,56.6-17.3,86.1c53.4,7.5,104.6,12,154.6-6.6c45.8-16.9,68.1-49.8,64.9-98.4C893.7,609,860.3,563.2,824.8,517.8z M188.2,500.3c35.3,32.5,67.3,61.8,101.2,93c0-63.8,0-122.9,0-186.7C254.6,438.8,223,468,188.2,500.3z M656.3,229c-45.2,14.3-86.8,27.4-130.8,41.3c55,31.8,105.9,61.2,161,93.1C676.1,317.5,666.6,275,656.3,229z M344.4,229c-10.4,46.3-20,89.2-30.1,134.5c55.1-32,106.5-61.8,161-93.4C431.2,256.3,389.6,243.2,344.4,229z M686.5,636.8c-55.1,31.9-106.4,61.6-161.2,93.4c44,13.8,85.8,26.9,131.1,41.1C666.8,725,676.1,683.2,686.5,636.8z M711.3,406.7c0,64.8,0,123.4,0,187c35-32.4,66.8-61.9,101-93.6C777.8,468.2,746.3,439.1,711.3,406.7z M344.3,771.3c45.3-14.2,87.1-27.4,130.9-41.2c-55-31.9-106.3-61.6-161-93.3C324.3,682,333.8,724.4,344.3,771.3z"/>
<path fill="url(#cent)" d="M498.8,579.6c-43.5-0.9-78-36.8-77.4-80.4c0.6-43.8,36.2-78.8,79.5-78.3c44.2,0.5,79.7,37.3,78.5,81.4C578.2,545.7,541.9,580.5,498.8,579.6z"/>
</g>
</svg>