<?xml version="1.0" standalone="no"?>
<!DOCTYPE svg PUBLIC "-//W3C//DTD SVG 20010904//EN"
 "http://www.w3.org/TR/2001/REC-SVG-20010904/DTD/svg10.dtd">
<svg version="1.0" xmlns="http://www.w3.org/2000/svg"
 width="1040.000000pt" height="1040.000000pt" viewBox="0 0 1040.000000 1040.000000"
 preserveAspectRatio="xMidYMid meet">

<g transform="translate(0.000000,1040.000000) scale(0.100000,-0.100000)"
fill="#000000" stroke="none">
<path d="M1140 10283 c-243 -42 -468 -157 -653 -332 -242 -230 -370 -499 -397
-836 -7 -81 -10 -432 -8 -933 l3 -803 860 -501 c473 -275 888 -513 923 -530
46 -22 82 -31 141 -35 97 -7 165 8 251 54 36 19 837 479 1780 1021 943 542
1731 992 1750 999 50 18 167 15 217 -5 87 -36 425 -237 446 -266 28 -39 34
-123 13 -164 -9 -17 -31 -42 -48 -55 -18 -13 -967 -561 -2108 -1218 -1404
-808 -2098 -1201 -2145 -1218 -87 -29 -182 -25 -271 11 -55 23 -379 208 -1382
792 -233 135 -425 246 -428 246 -2 0 -4 -192 -4 -427 l0 -428 885 -513 c486
-283 908 -523 937 -535 79 -30 212 -29 293 4 33 14 845 477 1805 1029 960 552
1770 1013 1800 1023 61 21 152 19 206 -5 49 -22 408 -228 428 -246 51 -46 61
-154 20 -209 -18 -24 -4093 -2379 -4229 -2444 -128 -61 -245 -56 -385 15 -77
39 -657 373 -1455 838 l-300 175 -3 -425 c-1 -234 1 -429 5 -433 16 -15 1740
-1013 1793 -1038 49 -23 67 -26 165 -26 97 0 116 3 165 26 30 14 840 477 1799
1028 959 552 1762 1009 1784 1017 48 17 152 18 198 2 68 -23 447 -249 465
-276 10 -15 20 -50 22 -78 5 -61 -13 -102 -60 -137 -81 -60 -4188 -2414 -4248
-2434 -84 -29 -166 -29 -250 0 -70 24 -157 73 -1174 664 -362 211 -660 383
-662 383 -9 0 -3 -1715 6 -1820 29 -326 160 -595 397 -821 190 -180 415 -293
668 -334 91 -14 455 -16 4095 -13 l3995 3 80 22 c263 71 447 175 621 350 197
196 317 435 359 713 22 143 22 7907 0 8050 -42 278 -162 517 -359 713 -174
175 -358 279 -621 350 l-80 22 -4010 2 c-3512 1 -4021 -1 -4095 -14z"/>
</g>
</svg>
