<svg xmlns="http://www.w3.org/2000/svg" xml:space="preserve" width="2048" height="2048" style="shape-rendering:geometricPrecision;text-rendering:geometricPrecision;image-rendering:optimizeQuality;fill-rule:evenodd;clip-rule:evenodd">
<defs><style>.fil0{fill:none}.fil1{fill:#212121;fill-rule:nonzero}</style></defs>
<g id="Layer_x0020_1">
<g id="_393279616">
<path id="_393278560" class="fil0" d="M0 0h2048v2048H0z"/>
<path id="_393276064" class="fil0" d="M255.999 255.999h1536v1536h-1536z"/>
</g>
<path class="fil1" d="M870.364 562.642C717.249 655.908 543.99 858.429 448.858 1072.85c-46.985 105.901-74.52 214.021-70.43 312.105 3.95 94.778 37.848 180.592 113.209 245.893 79.169 68.602 204.359 115.814 388.755 129.278 316.096 23.075 518.014-24.442 636.032-112.584 80.05-59.786 121.145-138.963 133.088-227.397 12.314-91.174-5.754-192.791-43.962-294.075-87.704-232.488-279.495-459.919-455.785-558.574-44.544 29.756-92.932 44.033-141.278 43.025-47.935-.999-95.236-17.025-138.123-47.88zM390.358 1047.1c104.159-234.767 299.029-457.005 467.094-550.786l19.252-10.741 16.873 14.24c36.014 30.396 76.11 46.123 116.16 46.958 39.913.831 80.57-13.133 117.883-42.111l16.071-12.481 18.18 9.355c193.138 99.406 407.693 348.26 503.429 602.037 41.718 110.59 61.283 222.745 47.463 325.074-14.191 105.07-63.004 199.134-158.087 270.148-129.613 96.802-345.743 149.397-678.784 125.085-199.298-14.55-336.806-67.485-426.005-144.778-90.068-78.044-130.545-179.752-135.21-291.644-4.528-108.584 25.076-226.295 75.681-340.355z"/><path class="fil1" d="M1226.89 369.999c11.49-25.815 10.931-47.61 2.092-62.039-4.16-6.79-10.289-12.079-17.875-15.374h-.125c-8.593-3.732-19.359-5.127-31.766-3.625-39.052 4.73-89.047 37.02-137.221 111.08l-26.748 41.124-26.751-41.124c-47.763-73.427-96.917-106.015-135.53-111.367-12.378-1.715-23.209-.432-31.95 3.279-7.831 3.325-14.129 8.681-18.368 15.566-8.972 14.569-9.754 36.75 1.328 63.23 25.114 60.007 58.495 104.816 96 134.284 34.896 27.42 73.265 41.418 111.494 41.798 38.44.382 77.443-12.858 113.388-39.913 38.992-29.347 74.415-74.872 102.032-136.919zm56.593-95.289c19.272 31.46 22.475 74.516 1.657 121.29-32.187 72.312-74.621 126.235-122.03 161.919-47.452 35.714-99.812 53.184-152.14 52.664-52.538-.523-104.354-19.043-150.494-55.298-45.726-35.927-85.936-89.393-115.5-160.035-19.607-46.846-15.912-89.838 3.423-121.232 11.242-18.256 27.564-32.3 47.62-40.815 19.148-8.13 41.489-11.135 65.697-7.779 46.564 6.455 101.62 37.309 153.549 102.638 52.79-66.226 109.104-96.867 156.45-102.601 23.792-2.88 45.825.398 64.767 8.626l-.02.046c19.902 8.669 36.02 22.621 47.02 40.578zM1005.66 1326.75v-120.689c-37.672-10.82-65.313-27.05-82.918-48.886-17.509-21.836-26.361-48.295-26.361-79.377 0-31.475 9.934-57.934 29.803-79.377 19.967-21.443 46.426-33.739 79.476-37.082v-28.525h41.705v28.525c30.59 3.737 54.885 14.066 72.984 31.278 18 17.213 29.507 40.23 34.525 69.05l-72.886 9.54c-4.427-22.72-15.935-38.065-34.623-46.131V1137.7c46.131 12.491 77.606 28.72 94.23 48.59 16.72 19.87 25.081 45.344 25.081 76.524 0 34.722-10.525 64.034-31.475 87.837-21.05 23.902-50.361 38.459-87.836 43.87v53.901h-41.705v-52.525c-33.247-4.033-60.295-16.426-81.05-37.18-20.754-20.656-33.934-49.967-39.738-87.837l75.246-8.066c3.05 15.345 8.853 28.624 17.312 39.739 8.36 11.115 17.803 19.18 28.23 24.197zm0-302.559c-11.41 3.836-20.361 10.427-27.148 19.573-6.688 9.247-10.033 19.477-10.033 30.59 0 10.132 3.05 19.673 9.147 28.328 6.198 8.755 15.541 15.837 28.034 21.247v-99.738zm41.705 306.591c14.459-2.655 26.164-9.344 35.213-19.968 9.049-10.72 13.573-23.212 13.573-37.671 0-12.886-3.836-23.902-11.41-33.247-7.574-9.344-20.065-16.523-37.376-21.442v112.328z"/>
</g>
</svg>